<svg xmlns="http://www.w3.org/2000/svg" xmlns:xlink="http://www.w3.org/1999/xlink" version="1.1" width="22px" height="22px" viewBox="0 0 256 256" xml:space="preserve">

<defs>
</defs>
<g style="stroke: none; stroke-width: 0; stroke-dasharray: none; stroke-linecap: butt; stroke-linejoin: miter; stroke-miterlimit: 10; fill: white; opacity: 1;" transform="translate(1.4065934065934016 1.4065934065934016) scale(2.81 2.81)" >
	<path d="M 45 69.871 H 32.666 c -0.552 0 -1 -0.447 -1 -1 V 53.634 c 0 -7.353 5.981 -13.334 13.334 -13.334 c 0.087 0 0.172 0.011 0.252 0.032 c 6.862 -0.135 12.402 -5.759 12.402 -12.652 v -0.691 c 0 -3.486 -1.388 -6.733 -3.907 -9.144 c -2.518 -2.41 -5.829 -3.647 -9.321 -3.498 c -6.661 0.293 -12.081 6.157 -12.081 13.07 v 4.112 c 0 0.552 -0.448 1 -1 1 H 19.012 c -0.552 0 -1 -0.448 -1 -1 v -3.955 c 0 -14.826 11.788 -27.191 26.276 -27.564 l 0 0 c 7.35 -0.185 14.29 2.527 19.547 7.649 c 5.258 5.125 8.153 11.989 8.153 19.33 v 0.691 c 0 13.215 -9.836 24.684 -22.879 26.677 C 47.337 54.628 46 56.235 46 58.096 v 10.775 C 46 69.424 45.552 69.871 45 69.871 z M 33.666 67.871 H 44 v -9.775 c 0 -2.84 2.066 -5.297 4.807 -5.716 c 12.075 -1.846 21.182 -12.464 21.182 -24.7 v -0.691 c 0 -6.797 -2.681 -13.153 -7.55 -17.897 C 57.572 4.348 51.146 1.843 44.34 2.008 l 0 0 C 30.925 2.354 20.012 13.822 20.012 27.574 v 2.955 h 10.334 v -3.112 c 0 -8.104 6.146 -14.722 13.993 -15.068 c 4.032 -0.172 7.876 1.261 10.792 4.051 c 2.918 2.792 4.524 6.552 4.524 10.589 v 0.691 c 0 8.081 -6.574 14.654 -14.654 14.654 c -0.087 0 -0.171 -0.011 -0.251 -0.032 c -6.134 0.134 -11.083 5.166 -11.083 11.332 V 67.871 z M 44.314 1.009 h 0.01 H 44.314 z" style="stroke: none; stroke-width: 1; stroke-dasharray: none; stroke-linecap: butt; stroke-linejoin: miter; stroke-miterlimit: 10; fill-rule: nonzero; opacity: 1;" transform=" matrix(1 0 0 1 0 0) " stroke-linecap="round" />
	<path d="M 45 90 H 32.666 c -0.552 0 -1 -0.447 -1 -1 V 76.666 c 0 -0.553 0.448 -1 1 -1 H 45 c 0.552 0 1 0.447 1 1 V 89 C 46 89.553 45.552 90 45 90 z M 33.666 88 H 44 V 77.666 H 33.666 V 88 z" style="stroke: none; stroke-width: 1; stroke-dasharray: none; stroke-linecap: butt; stroke-linejoin: miter; stroke-miterlimit: 10; fill: rgb(f,f,f); fill-rule: nonzero; opacity: 1;" transform=" matrix(1 0 0 1 0 0) " stroke-linecap="round" />
</g>
</svg>